<svg  viewBox="0 0 666 50" fill="none" xmlns="http://www.w3.org/2000/svg">
<circle cx="296" cy="7" r="7" fill="url(#paint0_linear_243_1114)"/>
<circle cx="303" cy="13" r="5" fill="url(#paint1_linear_243_1114)"/>
<circle r="6.24828" transform="matrix(0.390733 0.920504 -0.920506 0.390729 8.19276 11.1929)" fill="url(#paint2_linear_243_1114)"/>
<circle r="4.41031" transform="matrix(0.390729 0.920506 -0.920504 0.390733 12.7827 29.783)" fill="url(#paint3_linear_243_1114)"/>
<circle r="2.35106" transform="matrix(0.390729 0.920506 -0.920504 0.390734 26.6558 15.8504)" fill="url(#paint4_linear_243_1114)"/>
<circle cx="534.5" cy="44.5" r="5.5" fill="url(#paint5_linear_243_1114)"/>
<circle cx="641.5" cy="5.5" r="5.5" fill="url(#paint6_linear_243_1114)"/>
<circle cx="660.5" cy="24.5" r="5.5" fill="url(#paint7_linear_243_1114)"/>
<defs>
<linearGradient id="paint0_linear_243_1114" x1="289" y1="0" x2="302.201" y2="13.9772" gradientUnits="userSpaceOnUse">
<stop stop-color="white"/>
<stop offset="1" stop-color="#CDBDF2"/>
</linearGradient>
<linearGradient id="paint1_linear_243_1114" x1="298" y1="8" x2="307.429" y2="17.9837" gradientUnits="userSpaceOnUse">
<stop stop-color="white"/>
<stop offset="1" stop-color="#CDBDF2"/>
</linearGradient>
<linearGradient id="paint2_linear_243_1114" x1="0" y1="0" x2="11.783" y2="12.4762" gradientUnits="userSpaceOnUse">
<stop stop-color="white"/>
<stop offset="1" stop-color="#CDBDF2"/>
</linearGradient>
<linearGradient id="paint3_linear_243_1114" x1="0" y1="0" x2="8.31699" y2="8.80622" gradientUnits="userSpaceOnUse">
<stop stop-color="white"/>
<stop offset="1" stop-color="#CDBDF2"/>
</linearGradient>
<linearGradient id="paint4_linear_243_1114" x1="0" y1="0" x2="4.43365" y2="4.69446" gradientUnits="userSpaceOnUse">
<stop stop-color="white"/>
<stop offset="1" stop-color="#CDBDF2"/>
</linearGradient>
<linearGradient id="paint5_linear_243_1114" x1="529" y1="39" x2="539.372" y2="49.9821" gradientUnits="userSpaceOnUse">
<stop stop-color="white"/>
<stop offset="1" stop-color="#CDBDF2"/>
</linearGradient>
<linearGradient id="paint6_linear_243_1114" x1="636" y1="0" x2="646.372" y2="10.9821" gradientUnits="userSpaceOnUse">
<stop stop-color="white"/>
<stop offset="1" stop-color="#CDBDF2"/>
</linearGradient>
<linearGradient id="paint7_linear_243_1114" x1="655" y1="19" x2="665.372" y2="29.9821" gradientUnits="userSpaceOnUse">
<stop stop-color="white"/>
<stop offset="1" stop-color="#CDBDF2"/>
</linearGradient>
</defs>
</svg>
