<svg width="176" height="71" viewBox="0 0 296 71" fill="none" xmlns="http://www.w3.org/2000/svg">
<g id="ProposalButtonPressed">
<g id="Group 10">
<g id="ProposalButtonPressed_2">
<rect id="Rectangle 114" y="6" width="296" height="65" fill="white"/>
<path id="Start a Proposal" d="M51.3318 32.6364C51.2181 31.2798 50.6642 30.1825 49.6698 29.3445C48.6826 28.5064 47.4042 28.0874 45.8346 28.0874C44.7764 28.0874 43.8353 28.2827 43.0115 28.6733C42.1876 29.0639 41.5413 29.5966 41.0725 30.2713C40.6038 30.946 40.3694 31.7202 40.3694 32.5938C40.3694 33.1548 40.4759 33.6626 40.689 34.1172C40.9092 34.5646 41.2181 34.9659 41.6159 35.321C42.0136 35.669 42.4859 35.9744 43.0328 36.2372C43.5796 36.5 44.1833 36.7308 44.8438 36.9297L47.2302 37.6328C48.047 37.8814 48.7998 38.169 49.4887 38.4957C50.1847 38.8224 50.7884 39.2131 51.2998 39.6676C51.8183 40.1151 52.2195 40.6406 52.5036 41.2443C52.7948 41.848 52.9404 42.544 52.9404 43.3324C52.9404 44.483 52.6421 45.5128 52.0455 46.4219C51.4561 47.331 50.6144 48.0483 49.5207 48.5739C48.434 49.0923 47.1521 49.3516 45.6748 49.3516C44.2686 49.3516 43.0434 49.1136 41.9994 48.6378C40.9624 48.1619 40.1421 47.5014 39.5384 46.6562C38.9347 45.804 38.5938 44.8239 38.5157 43.7159H39.8794C39.9504 44.6179 40.238 45.3991 40.7423 46.0597C41.2536 46.7131 41.9319 47.2173 42.7771 47.5724C43.6222 47.9276 44.5882 48.1051 45.6748 48.1051C46.8467 48.1051 47.8801 47.9062 48.7749 47.5085C49.6698 47.1037 50.3694 46.5426 50.8737 45.8253C51.3779 45.108 51.6301 44.2734 51.6301 43.3217C51.6301 42.5547 51.449 41.8977 51.0867 41.3509C50.7245 40.804 50.1883 40.3317 49.4781 39.9339C48.7749 39.5362 47.9014 39.1811 46.8573 38.8686L44.3112 38.1016C42.6066 37.5831 41.3034 36.8764 40.4014 35.9815C39.5065 35.0866 39.059 33.9716 39.059 32.6364C39.059 31.5142 39.3573 30.5199 39.9539 29.6534C40.5505 28.7798 41.3602 28.0945 42.3829 27.5973C43.4127 27.1001 44.574 26.8516 45.8666 26.8516C47.1663 26.8516 48.3133 27.1037 49.3076 27.608C50.3019 28.1051 51.0903 28.7905 51.6727 29.6641C52.2551 30.5305 52.5782 31.5213 52.6421 32.6364H51.3318ZM63.5299 32.6364V33.7976H56.3815V32.6364H63.5299ZM58.7998 28.7159H60.0889V45.1328C60.0889 45.8004 60.2167 46.3473 60.4724 46.7734C60.7352 47.1925 61.0761 47.505 61.4951 47.7109C61.9213 47.9098 62.3758 48.0092 62.8588 48.0092C63.0931 48.0092 63.2955 47.9915 63.466 47.956C63.6436 47.9205 63.8105 47.8743 63.9667 47.8175L64.2863 49C64.0874 49.071 63.8673 49.1314 63.6258 49.1811C63.3843 49.2379 63.1002 49.2663 62.7735 49.2663C62.0917 49.2663 61.4454 49.1136 60.8346 48.8082C60.2309 48.5028 59.7409 48.0589 59.3644 47.4766C58.988 46.8942 58.7998 46.1911 58.7998 45.3672V28.7159ZM72.6865 49.3516C71.7419 49.3516 70.8754 49.1634 70.0871 48.7869C69.3058 48.4105 68.6773 47.8601 68.2014 47.1357C67.7327 46.4112 67.4983 45.5305 67.4983 44.4936C67.4983 43.8118 67.6191 43.2116 67.8605 42.6932C68.102 42.1747 68.4749 41.7273 68.9791 41.3509C69.4834 40.9744 70.1297 40.6655 70.9181 40.424C71.7064 40.1754 72.6475 39.9837 73.7412 39.8487C74.5722 39.7493 75.3144 39.6534 75.9678 39.5611C76.6212 39.4616 77.1325 39.3089 77.5019 39.103C77.8783 38.897 78.0665 38.5845 78.0665 38.1655V37.4837C78.0665 36.2905 77.6901 35.3423 76.9372 34.6392C76.1844 33.9361 75.1475 33.5845 73.8264 33.5845C72.6546 33.5845 71.6673 33.8437 70.8648 34.3622C70.0693 34.8736 69.5118 35.5341 69.1922 36.3438L67.9671 35.8857C68.2796 35.1044 68.7306 34.4545 69.32 33.9361C69.9166 33.4176 70.5985 33.0305 71.3655 32.7749C72.1396 32.5192 72.9493 32.3913 73.7945 32.3913C74.526 32.3913 75.222 32.4943 75.8825 32.7003C76.5502 32.9062 77.1432 33.2188 77.6617 33.6378C78.1872 34.0568 78.6027 34.593 78.9081 35.2464C79.2135 35.8928 79.3662 36.6669 79.3662 37.5689V49H78.0665V46.049H77.9706C77.6865 46.6598 77.2959 47.2173 76.7987 47.7216C76.3087 48.2188 75.7156 48.6165 75.0196 48.9148C74.3307 49.206 73.553 49.3516 72.6865 49.3516ZM72.8144 48.1477C73.8371 48.1477 74.7426 47.8991 75.531 47.402C76.3264 46.8977 76.9479 46.2088 77.3953 45.3352C77.8428 44.4616 78.0665 43.4709 78.0665 42.3629V39.9553C77.9031 40.0973 77.6652 40.2251 77.3527 40.3388C77.0473 40.4453 76.6993 40.5412 76.3087 40.6264C75.9252 40.7045 75.5203 40.7756 75.0942 40.8395C74.6752 40.8963 74.2668 40.9496 73.8691 40.9993C72.6759 41.1413 71.7029 41.3615 70.95 41.6598C70.2043 41.951 69.6574 42.3345 69.3094 42.8104C68.9685 43.2862 68.798 43.8615 68.798 44.5362C68.798 45.6513 69.1816 46.532 69.9486 47.1783C70.7156 47.8246 71.6709 48.1477 72.8144 48.1477ZM84.8154 49V32.6364H86.0832V35.1932H86.2004C86.5555 34.3551 87.1556 33.6839 88.0008 33.1797C88.846 32.6683 89.8083 32.4126 90.8879 32.4126C91.0015 32.4126 91.1151 32.4126 91.2288 32.4126C91.3424 32.4126 91.449 32.4162 91.5484 32.4233V33.7337C91.4632 33.7266 91.3602 33.7159 91.2394 33.7017C91.1258 33.6804 90.9838 33.6697 90.8133 33.6697C89.9042 33.6697 89.0945 33.8651 88.3843 34.2557C87.6812 34.6463 87.1272 35.1861 86.7224 35.875C86.3176 36.5568 86.1151 37.3381 86.1151 38.2188V49H84.8154ZM101.85 32.6364V33.7976H94.7018V32.6364H101.85ZM97.1201 28.7159H98.4092V45.1328C98.4092 45.8004 98.537 46.3473 98.7927 46.7734C99.0555 47.1925 99.3964 47.505 99.8154 47.7109C100.242 47.9098 100.696 48.0092 101.179 48.0092C101.413 48.0092 101.616 47.9915 101.786 47.956C101.964 47.9205 102.131 47.8743 102.287 47.8175L102.607 49C102.408 49.071 102.188 49.1314 101.946 49.1811C101.705 49.2379 101.421 49.2663 101.094 49.2663C100.412 49.2663 99.7657 49.1136 99.1549 48.8082C98.5512 48.5028 98.0612 48.0589 97.6847 47.4766C97.3083 46.8942 97.1201 46.1911 97.1201 45.3672V28.7159ZM119.444 49.3516C118.5 49.3516 117.633 49.1634 116.845 48.7869C116.064 48.4105 115.435 47.8601 114.959 47.1357C114.491 46.4112 114.256 45.5305 114.256 44.4936C114.256 43.8118 114.377 43.2116 114.618 42.6932C114.86 42.1747 115.233 41.7273 115.737 41.3509C116.241 40.9744 116.888 40.6655 117.676 40.424C118.464 40.1754 119.405 39.9837 120.499 39.8487C121.33 39.7493 122.072 39.6534 122.726 39.5611C123.379 39.4616 123.89 39.3089 124.26 39.103C124.636 38.897 124.824 38.5845 124.824 38.1655V37.4837C124.824 36.2905 124.448 35.3423 123.695 34.6392C122.942 33.9361 121.905 33.5845 120.584 33.5845C119.412 33.5845 118.425 33.8437 117.623 34.3622C116.827 34.8736 116.27 35.5341 115.95 36.3438L114.725 35.8857C115.037 35.1044 115.488 34.4545 116.078 33.9361C116.674 33.4176 117.356 33.0305 118.123 32.7749C118.897 32.5192 119.707 32.3913 120.552 32.3913C121.284 32.3913 121.98 32.4943 122.64 32.7003C123.308 32.9062 123.901 33.2188 124.419 33.6378C124.945 34.0568 125.361 34.593 125.666 35.2464C125.971 35.8928 126.124 36.6669 126.124 37.5689V49H124.824V46.049H124.728C124.444 46.6598 124.054 47.2173 123.557 47.7216C123.066 48.2188 122.473 48.6165 121.777 48.9148C121.089 49.206 120.311 49.3516 119.444 49.3516ZM119.572 48.1477C120.595 48.1477 121.5 47.8991 122.289 47.402C123.084 46.8977 123.706 46.2088 124.153 45.3352C124.601 44.4616 124.824 43.4709 124.824 42.3629V39.9553C124.661 40.0973 124.423 40.2251 124.111 40.3388C123.805 40.4453 123.457 40.5412 123.066 40.6264C122.683 40.7045 122.278 40.7756 121.852 40.8395C121.433 40.8963 121.025 40.9496 120.627 40.9993C119.434 41.1413 118.461 41.3615 117.708 41.6598C116.962 41.951 116.415 42.3345 116.067 42.8104C115.726 43.2862 115.556 43.8615 115.556 44.5362C115.556 45.6513 115.939 46.532 116.706 47.1783C117.473 47.8246 118.429 48.1477 119.572 48.1477ZM140.469 49V27.1818H147.191C148.576 27.1818 149.762 27.4659 150.749 28.0341C151.744 28.6023 152.507 29.38 153.04 30.3672C153.573 31.3544 153.839 32.4801 153.839 33.7443C153.839 34.9943 153.573 36.1129 153.04 37.1001C152.507 38.0874 151.744 38.8686 150.749 39.4439C149.762 40.0121 148.58 40.2962 147.202 40.2962H141.406V39.0604H147.17C148.292 39.0604 149.251 38.8331 150.046 38.3786C150.842 37.9169 151.453 37.2884 151.879 36.4929C152.305 35.6903 152.518 34.7741 152.518 33.7443C152.518 32.7074 152.305 31.7876 151.879 30.9851C151.453 30.1825 150.838 29.554 150.036 29.0994C149.24 28.6449 148.281 28.4176 147.159 28.4176H141.801V49H140.469ZM158.497 49V32.6364H159.765V35.1932H159.882C160.237 34.3551 160.837 33.6839 161.682 33.1797C162.528 32.6683 163.49 32.4126 164.57 32.4126C164.683 32.4126 164.797 32.4126 164.91 32.4126C165.024 32.4126 165.131 32.4162 165.23 32.4233V33.7337C165.145 33.7266 165.042 33.7159 164.921 33.7017C164.807 33.6804 164.665 33.6697 164.495 33.6697C163.586 33.6697 162.776 33.8651 162.066 34.2557C161.363 34.6463 160.809 35.1861 160.404 35.875C159.999 36.5568 159.797 37.3381 159.797 38.2188V49H158.497ZM174.307 49.3409C172.957 49.3409 171.757 48.9787 170.706 48.2543C169.655 47.5227 168.827 46.5178 168.224 45.2393C167.62 43.9609 167.318 42.505 167.318 40.8714C167.318 39.2308 167.62 37.7749 168.224 36.5036C168.827 35.2251 169.655 34.2202 170.706 33.4886C171.757 32.7571 172.957 32.3913 174.307 32.3913C175.656 32.3913 176.856 32.7571 177.908 33.4886C178.959 34.2202 179.786 35.2251 180.39 36.5036C180.994 37.782 181.295 39.2379 181.295 40.8714C181.295 42.505 180.994 43.9609 180.39 45.2393C179.786 46.5178 178.959 47.5227 177.908 48.2543C176.856 48.9787 175.656 49.3409 174.307 49.3409ZM174.307 48.1371C175.45 48.1371 176.448 47.8139 177.3 47.1676C178.16 46.5213 178.824 45.6477 179.293 44.5469C179.768 43.446 180.006 42.2209 180.006 40.8714C180.006 39.522 179.768 38.3004 179.293 37.2067C178.817 36.1058 178.153 35.2322 177.3 34.5859C176.448 33.9325 175.45 33.6058 174.307 33.6058C173.163 33.6058 172.165 33.9325 171.313 34.5859C170.461 35.2322 169.797 36.1058 169.321 37.2067C168.845 38.3004 168.607 39.522 168.607 40.8714C168.607 42.2209 168.842 43.446 169.31 44.5469C169.786 45.6477 170.45 46.5213 171.302 47.1676C172.162 47.8139 173.163 48.1371 174.307 48.1371ZM185.772 55.1364V32.6364H187.04V36.2905H187.2C187.456 35.5874 187.814 34.9411 188.276 34.3516C188.745 33.7621 189.324 33.2898 190.013 32.9347C190.709 32.5724 191.525 32.3913 192.463 32.3913C193.784 32.3913 194.934 32.7536 195.915 33.478C196.895 34.2024 197.655 35.2038 198.194 36.4822C198.734 37.7536 199.004 39.2131 199.004 40.8608C199.004 42.5085 198.731 43.9716 198.184 45.25C197.644 46.5213 196.884 47.5227 195.904 48.2543C194.931 48.9787 193.791 49.3409 192.484 49.3409C191.554 49.3409 190.737 49.1634 190.034 48.8082C189.338 48.4531 188.752 47.9808 188.276 47.3913C187.807 46.7947 187.449 46.1413 187.2 45.4311H187.072V55.1364H185.772ZM187.051 40.8501C187.051 42.2422 187.264 43.4886 187.69 44.5895C188.116 45.6832 188.727 46.5497 189.522 47.1889C190.318 47.821 191.266 48.1371 192.367 48.1371C193.482 48.1371 194.437 47.8175 195.233 47.1783C196.035 46.532 196.646 45.6584 197.065 44.5575C197.491 43.4567 197.704 42.2209 197.704 40.8501C197.704 39.4794 197.495 38.2472 197.076 37.1534C196.657 36.0597 196.049 35.1967 195.254 34.5646C194.459 33.9254 193.496 33.6058 192.367 33.6058C191.252 33.6058 190.297 33.9219 189.501 34.554C188.713 35.179 188.106 36.0384 187.679 37.1321C187.26 38.2187 187.051 39.4581 187.051 40.8501ZM209.58 49.3409C208.231 49.3409 207.03 48.9787 205.979 48.2543C204.928 47.5227 204.101 46.5178 203.497 45.2393C202.893 43.9609 202.592 42.505 202.592 40.8714C202.592 39.2308 202.893 37.7749 203.497 36.5036C204.101 35.2251 204.928 34.2202 205.979 33.4886C207.03 32.7571 208.231 32.3913 209.58 32.3913C210.93 32.3913 212.13 32.7571 213.181 33.4886C214.232 34.2202 215.06 35.2251 215.663 36.5036C216.267 37.782 216.569 39.2379 216.569 40.8714C216.569 42.505 216.267 43.9609 215.663 45.2393C215.06 46.5178 214.232 47.5227 213.181 48.2543C212.13 48.9787 210.93 49.3409 209.58 49.3409ZM209.58 48.1371C210.724 48.1371 211.722 47.8139 212.574 47.1676C213.433 46.5213 214.097 45.6477 214.566 44.5469C215.042 43.446 215.28 42.2209 215.28 40.8714C215.28 39.522 215.042 38.3004 214.566 37.2067C214.09 36.1058 213.426 35.2322 212.574 34.5859C211.722 33.9325 210.724 33.6058 209.58 33.6058C208.437 33.6058 207.439 33.9325 206.587 34.5859C205.734 35.2322 205.07 36.1058 204.594 37.2067C204.119 38.3004 203.881 39.522 203.881 40.8714C203.881 42.2209 204.115 43.446 204.584 44.5469C205.06 45.6477 205.724 46.5213 206.576 47.1676C207.435 47.8139 208.437 48.1371 209.58 48.1371ZM231.444 36.1626L230.24 36.4822C230.048 35.8857 229.775 35.3707 229.419 34.9375C229.064 34.5043 228.617 34.1705 228.077 33.9361C227.544 33.6946 226.905 33.5739 226.16 33.5739C224.959 33.5739 223.976 33.8722 223.209 34.4688C222.449 35.0653 222.069 35.843 222.069 36.8018C222.069 37.5831 222.328 38.2294 222.846 38.7408C223.365 39.245 224.157 39.6286 225.222 39.8913L227.736 40.5199C229.029 40.8395 230.002 41.358 230.655 42.0753C231.309 42.7855 231.635 43.6697 231.635 44.728C231.635 45.63 231.39 46.429 230.9 47.125C230.41 47.821 229.732 48.3643 228.866 48.755C228.006 49.1456 227.005 49.3409 225.861 49.3409C224.334 49.3409 223.081 48.9858 222.101 48.2756C221.12 47.5582 220.492 46.532 220.215 45.1967L221.461 44.8771C221.696 45.9425 222.182 46.7557 222.921 47.3168C223.667 47.8707 224.643 48.1477 225.851 48.1477C227.186 48.1477 228.262 47.8317 229.079 47.1996C229.902 46.5675 230.314 45.7578 230.314 44.7706C230.314 44.0178 230.073 43.3821 229.59 42.8636C229.107 42.3452 228.375 41.9652 227.395 41.7237L224.785 41.0845C223.45 40.7578 222.449 40.2358 221.781 39.5185C221.113 38.794 220.78 37.9027 220.78 36.8445C220.78 35.9638 221.01 35.1896 221.472 34.522C221.934 33.8544 222.569 33.3324 223.379 32.956C224.189 32.5795 225.116 32.3913 226.16 32.3913C227.544 32.3913 228.674 32.718 229.547 33.3714C230.421 34.0249 231.053 34.9553 231.444 36.1626ZM240.47 49.3516C239.525 49.3516 238.659 49.1634 237.87 48.7869C237.089 48.4105 236.46 47.8601 235.985 47.1357C235.516 46.4112 235.282 45.5305 235.282 44.4936C235.282 43.8118 235.402 43.2116 235.644 42.6932C235.885 42.1747 236.258 41.7273 236.762 41.3509C237.267 40.9744 237.913 40.6655 238.701 40.424C239.49 40.1754 240.431 39.9837 241.524 39.8487C242.355 39.7493 243.098 39.6534 243.751 39.5611C244.404 39.4616 244.916 39.3089 245.285 39.103C245.661 38.897 245.85 38.5845 245.85 38.1655V37.4837C245.85 36.2905 245.473 35.3423 244.72 34.6392C243.968 33.9361 242.931 33.5845 241.61 33.5845C240.438 33.5845 239.451 33.8437 238.648 34.3622C237.853 34.8736 237.295 35.5341 236.975 36.3438L235.75 35.8857C236.063 35.1044 236.514 34.4545 237.103 33.9361C237.7 33.4176 238.382 33.0305 239.149 32.7749C239.923 32.5192 240.733 32.3913 241.578 32.3913C242.309 32.3913 243.005 32.4943 243.666 32.7003C244.333 32.9062 244.926 33.2188 245.445 33.6378C245.97 34.0568 246.386 34.593 246.691 35.2464C246.997 35.8928 247.149 36.6669 247.149 37.5689V49H245.85V46.049H245.754C245.47 46.6598 245.079 47.2173 244.582 47.7216C244.092 48.2188 243.499 48.6165 242.803 48.9148C242.114 49.206 241.336 49.3516 240.47 49.3516ZM240.598 48.1477C241.62 48.1477 242.526 47.8991 243.314 47.402C244.11 46.8977 244.731 46.2088 245.179 45.3352C245.626 44.4616 245.85 43.4709 245.85 42.3629V39.9553C245.686 40.0973 245.448 40.2251 245.136 40.3388C244.831 40.4453 244.483 40.5412 244.092 40.6264C243.708 40.7045 243.304 40.7756 242.877 40.8395C242.458 40.8963 242.05 40.9496 241.652 40.9993C240.459 41.1413 239.486 41.3615 238.733 41.6598C237.987 41.951 237.441 42.3345 237.093 42.8104C236.752 43.2862 236.581 43.8615 236.581 44.5362C236.581 45.6513 236.965 46.532 237.732 47.1783C238.499 47.8246 239.454 48.1477 240.598 48.1477ZM253.898 27.1818V49H252.599V27.1818H253.898Z" fill="#CE5A85"/>
</g>
</g>
</g>
</svg>
