<svg width="184" height="71" viewBox="0 0 306 71" fill="none" xmlns="http://www.w3.org/2000/svg">
<g id="ProposalButton">
<path id="Rectangle 86" d="M0 65H296L306 71H6L0 65Z" fill="url(#paint0_linear_462_466)"/>
<path id="Rectangle 85" d="M296 0L306 6V71L296 65V0Z" fill="url(#paint1_linear_462_466)"/>
<rect id="Rectangle 113" width="296" height="65" fill="white"/>
<path id="Start a Proposal" d="M51.3318 26.6364C51.2181 25.2798 50.6642 24.1825 49.6698 23.3445C48.6826 22.5064 47.4042 22.0874 45.8346 22.0874C44.7764 22.0874 43.8353 22.2827 43.0115 22.6733C42.1876 23.0639 41.5413 23.5966 41.0725 24.2713C40.6038 24.946 40.3694 25.7202 40.3694 26.5938C40.3694 27.1548 40.4759 27.6626 40.689 28.1172C40.9092 28.5646 41.2181 28.9659 41.6159 29.321C42.0136 29.669 42.4859 29.9744 43.0328 30.2372C43.5796 30.5 44.1833 30.7308 44.8438 30.9297L47.2302 31.6328C48.047 31.8814 48.7998 32.169 49.4887 32.4957C50.1847 32.8224 50.7884 33.2131 51.2998 33.6676C51.8183 34.1151 52.2195 34.6406 52.5036 35.2443C52.7948 35.848 52.9404 36.544 52.9404 37.3324C52.9404 38.483 52.6421 39.5128 52.0455 40.4219C51.4561 41.331 50.6144 42.0483 49.5207 42.5739C48.434 43.0923 47.1521 43.3516 45.6748 43.3516C44.2686 43.3516 43.0434 43.1136 41.9994 42.6378C40.9624 42.1619 40.1421 41.5014 39.5384 40.6562C38.9347 39.804 38.5938 38.8239 38.5157 37.7159H39.8794C39.9504 38.6179 40.238 39.3991 40.7423 40.0597C41.2536 40.7131 41.9319 41.2173 42.7771 41.5724C43.6222 41.9276 44.5882 42.1051 45.6748 42.1051C46.8467 42.1051 47.8801 41.9062 48.7749 41.5085C49.6698 41.1037 50.3694 40.5426 50.8737 39.8253C51.3779 39.108 51.6301 38.2734 51.6301 37.3217C51.6301 36.5547 51.449 35.8977 51.0867 35.3509C50.7245 34.804 50.1883 34.3317 49.4781 33.9339C48.7749 33.5362 47.9014 33.1811 46.8573 32.8686L44.3112 32.1016C42.6066 31.5831 41.3034 30.8764 40.4014 29.9815C39.5065 29.0866 39.059 27.9716 39.059 26.6364C39.059 25.5142 39.3573 24.5199 39.9539 23.6534C40.5505 22.7798 41.3602 22.0945 42.3829 21.5973C43.4127 21.1001 44.574 20.8516 45.8666 20.8516C47.1663 20.8516 48.3133 21.1037 49.3076 21.608C50.3019 22.1051 51.0903 22.7905 51.6727 23.6641C52.2551 24.5305 52.5782 25.5213 52.6421 26.6364H51.3318ZM63.5299 26.6364V27.7976H56.3815V26.6364H63.5299ZM58.7998 22.7159H60.0889V39.1328C60.0889 39.8004 60.2167 40.3473 60.4724 40.7734C60.7352 41.1925 61.0761 41.505 61.4951 41.7109C61.9213 41.9098 62.3758 42.0092 62.8588 42.0092C63.0931 42.0092 63.2955 41.9915 63.466 41.956C63.6436 41.9205 63.8105 41.8743 63.9667 41.8175L64.2863 43C64.0874 43.071 63.8673 43.1314 63.6258 43.1811C63.3843 43.2379 63.1002 43.2663 62.7735 43.2663C62.0917 43.2663 61.4454 43.1136 60.8346 42.8082C60.2309 42.5028 59.7409 42.0589 59.3644 41.4766C58.988 40.8942 58.7998 40.1911 58.7998 39.3672V22.7159ZM72.6865 43.3516C71.7419 43.3516 70.8754 43.1634 70.0871 42.7869C69.3058 42.4105 68.6773 41.8601 68.2014 41.1357C67.7327 40.4112 67.4983 39.5305 67.4983 38.4936C67.4983 37.8118 67.6191 37.2116 67.8605 36.6932C68.102 36.1747 68.4749 35.7273 68.9791 35.3509C69.4834 34.9744 70.1297 34.6655 70.9181 34.424C71.7064 34.1754 72.6475 33.9837 73.7412 33.8487C74.5722 33.7493 75.3144 33.6534 75.9678 33.5611C76.6212 33.4616 77.1325 33.3089 77.5019 33.103C77.8783 32.897 78.0665 32.5845 78.0665 32.1655V31.4837C78.0665 30.2905 77.6901 29.3423 76.9372 28.6392C76.1844 27.9361 75.1475 27.5845 73.8264 27.5845C72.6546 27.5845 71.6673 27.8437 70.8648 28.3622C70.0693 28.8736 69.5118 29.5341 69.1922 30.3438L67.9671 29.8857C68.2796 29.1044 68.7306 28.4545 69.32 27.9361C69.9166 27.4176 70.5985 27.0305 71.3655 26.7749C72.1396 26.5192 72.9493 26.3913 73.7945 26.3913C74.526 26.3913 75.222 26.4943 75.8825 26.7003C76.5502 26.9062 77.1432 27.2188 77.6617 27.6378C78.1872 28.0568 78.6027 28.593 78.9081 29.2464C79.2135 29.8928 79.3662 30.6669 79.3662 31.5689V43H78.0665V40.049H77.9706C77.6865 40.6598 77.2959 41.2173 76.7987 41.7216C76.3087 42.2188 75.7156 42.6165 75.0196 42.9148C74.3307 43.206 73.553 43.3516 72.6865 43.3516ZM72.8144 42.1477C73.8371 42.1477 74.7426 41.8991 75.531 41.402C76.3264 40.8977 76.9479 40.2088 77.3953 39.3352C77.8428 38.4616 78.0665 37.4709 78.0665 36.3629V33.9553C77.9031 34.0973 77.6652 34.2251 77.3527 34.3388C77.0473 34.4453 76.6993 34.5412 76.3087 34.6264C75.9252 34.7045 75.5203 34.7756 75.0942 34.8395C74.6752 34.8963 74.2668 34.9496 73.8691 34.9993C72.6759 35.1413 71.7029 35.3615 70.95 35.6598C70.2043 35.951 69.6574 36.3345 69.3094 36.8104C68.9685 37.2862 68.798 37.8615 68.798 38.5362C68.798 39.6513 69.1816 40.532 69.9486 41.1783C70.7156 41.8246 71.6709 42.1477 72.8144 42.1477ZM84.8154 43V26.6364H86.0832V29.1932H86.2004C86.5555 28.3551 87.1556 27.6839 88.0008 27.1797C88.846 26.6683 89.8083 26.4126 90.8879 26.4126C91.0015 26.4126 91.1151 26.4126 91.2288 26.4126C91.3424 26.4126 91.449 26.4162 91.5484 26.4233V27.7337C91.4632 27.7266 91.3602 27.7159 91.2394 27.7017C91.1258 27.6804 90.9838 27.6697 90.8133 27.6697C89.9042 27.6697 89.0945 27.8651 88.3843 28.2557C87.6812 28.6463 87.1272 29.1861 86.7224 29.875C86.3176 30.5568 86.1151 31.3381 86.1151 32.2188V43H84.8154ZM101.85 26.6364V27.7976H94.7018V26.6364H101.85ZM97.1201 22.7159H98.4092V39.1328C98.4092 39.8004 98.537 40.3473 98.7927 40.7734C99.0555 41.1925 99.3964 41.505 99.8154 41.7109C100.242 41.9098 100.696 42.0092 101.179 42.0092C101.413 42.0092 101.616 41.9915 101.786 41.956C101.964 41.9205 102.131 41.8743 102.287 41.8175L102.607 43C102.408 43.071 102.188 43.1314 101.946 43.1811C101.705 43.2379 101.421 43.2663 101.094 43.2663C100.412 43.2663 99.7657 43.1136 99.1549 42.8082C98.5512 42.5028 98.0612 42.0589 97.6847 41.4766C97.3083 40.8942 97.1201 40.1911 97.1201 39.3672V22.7159ZM119.444 43.3516C118.5 43.3516 117.633 43.1634 116.845 42.7869C116.064 42.4105 115.435 41.8601 114.959 41.1357C114.491 40.4112 114.256 39.5305 114.256 38.4936C114.256 37.8118 114.377 37.2116 114.618 36.6932C114.86 36.1747 115.233 35.7273 115.737 35.3509C116.241 34.9744 116.888 34.6655 117.676 34.424C118.464 34.1754 119.405 33.9837 120.499 33.8487C121.33 33.7493 122.072 33.6534 122.726 33.5611C123.379 33.4616 123.89 33.3089 124.26 33.103C124.636 32.897 124.824 32.5845 124.824 32.1655V31.4837C124.824 30.2905 124.448 29.3423 123.695 28.6392C122.942 27.9361 121.905 27.5845 120.584 27.5845C119.412 27.5845 118.425 27.8437 117.623 28.3622C116.827 28.8736 116.27 29.5341 115.95 30.3438L114.725 29.8857C115.037 29.1044 115.488 28.4545 116.078 27.9361C116.674 27.4176 117.356 27.0305 118.123 26.7749C118.897 26.5192 119.707 26.3913 120.552 26.3913C121.284 26.3913 121.98 26.4943 122.64 26.7003C123.308 26.9062 123.901 27.2188 124.419 27.6378C124.945 28.0568 125.361 28.593 125.666 29.2464C125.971 29.8928 126.124 30.6669 126.124 31.5689V43H124.824V40.049H124.728C124.444 40.6598 124.054 41.2173 123.557 41.7216C123.066 42.2188 122.473 42.6165 121.777 42.9148C121.089 43.206 120.311 43.3516 119.444 43.3516ZM119.572 42.1477C120.595 42.1477 121.5 41.8991 122.289 41.402C123.084 40.8977 123.706 40.2088 124.153 39.3352C124.601 38.4616 124.824 37.4709 124.824 36.3629V33.9553C124.661 34.0973 124.423 34.2251 124.111 34.3388C123.805 34.4453 123.457 34.5412 123.066 34.6264C122.683 34.7045 122.278 34.7756 121.852 34.8395C121.433 34.8963 121.025 34.9496 120.627 34.9993C119.434 35.1413 118.461 35.3615 117.708 35.6598C116.962 35.951 116.415 36.3345 116.067 36.8104C115.726 37.2862 115.556 37.8615 115.556 38.5362C115.556 39.6513 115.939 40.532 116.706 41.1783C117.473 41.8246 118.429 42.1477 119.572 42.1477ZM140.469 43V21.1818H147.191C148.576 21.1818 149.762 21.4659 150.749 22.0341C151.744 22.6023 152.507 23.38 153.04 24.3672C153.573 25.3544 153.839 26.4801 153.839 27.7443C153.839 28.9943 153.573 30.1129 153.04 31.1001C152.507 32.0874 151.744 32.8686 150.749 33.4439C149.762 34.0121 148.58 34.2962 147.202 34.2962H141.406V33.0604H147.17C148.292 33.0604 149.251 32.8331 150.046 32.3786C150.842 31.9169 151.453 31.2884 151.879 30.4929C152.305 29.6903 152.518 28.7741 152.518 27.7443C152.518 26.7074 152.305 25.7876 151.879 24.9851C151.453 24.1825 150.838 23.554 150.036 23.0994C149.24 22.6449 148.281 22.4176 147.159 22.4176H141.801V43H140.469ZM158.497 43V26.6364H159.765V29.1932H159.882C160.237 28.3551 160.837 27.6839 161.682 27.1797C162.528 26.6683 163.49 26.4126 164.57 26.4126C164.683 26.4126 164.797 26.4126 164.91 26.4126C165.024 26.4126 165.131 26.4162 165.23 26.4233V27.7337C165.145 27.7266 165.042 27.7159 164.921 27.7017C164.807 27.6804 164.665 27.6697 164.495 27.6697C163.586 27.6697 162.776 27.8651 162.066 28.2557C161.363 28.6463 160.809 29.1861 160.404 29.875C159.999 30.5568 159.797 31.3381 159.797 32.2188V43H158.497ZM174.307 43.3409C172.957 43.3409 171.757 42.9787 170.706 42.2543C169.655 41.5227 168.827 40.5178 168.224 39.2393C167.62 37.9609 167.318 36.505 167.318 34.8714C167.318 33.2308 167.62 31.7749 168.224 30.5036C168.827 29.2251 169.655 28.2202 170.706 27.4886C171.757 26.7571 172.957 26.3913 174.307 26.3913C175.656 26.3913 176.856 26.7571 177.908 27.4886C178.959 28.2202 179.786 29.2251 180.39 30.5036C180.994 31.782 181.295 33.2379 181.295 34.8714C181.295 36.505 180.994 37.9609 180.39 39.2393C179.786 40.5178 178.959 41.5227 177.908 42.2543C176.856 42.9787 175.656 43.3409 174.307 43.3409ZM174.307 42.1371C175.45 42.1371 176.448 41.8139 177.3 41.1676C178.16 40.5213 178.824 39.6477 179.293 38.5469C179.768 37.446 180.006 36.2209 180.006 34.8714C180.006 33.522 179.768 32.3004 179.293 31.2067C178.817 30.1058 178.153 29.2322 177.3 28.5859C176.448 27.9325 175.45 27.6058 174.307 27.6058C173.163 27.6058 172.165 27.9325 171.313 28.5859C170.461 29.2322 169.797 30.1058 169.321 31.2067C168.845 32.3004 168.607 33.522 168.607 34.8714C168.607 36.2209 168.842 37.446 169.31 38.5469C169.786 39.6477 170.45 40.5213 171.302 41.1676C172.162 41.8139 173.163 42.1371 174.307 42.1371ZM185.772 49.1364V26.6364H187.04V30.2905H187.2C187.456 29.5874 187.814 28.9411 188.276 28.3516C188.745 27.7621 189.324 27.2898 190.013 26.9347C190.709 26.5724 191.525 26.3913 192.463 26.3913C193.784 26.3913 194.934 26.7536 195.915 27.478C196.895 28.2024 197.655 29.2038 198.194 30.4822C198.734 31.7536 199.004 33.2131 199.004 34.8608C199.004 36.5085 198.731 37.9716 198.184 39.25C197.644 40.5213 196.884 41.5227 195.904 42.2543C194.931 42.9787 193.791 43.3409 192.484 43.3409C191.554 43.3409 190.737 43.1634 190.034 42.8082C189.338 42.4531 188.752 41.9808 188.276 41.3913C187.807 40.7947 187.449 40.1413 187.2 39.4311H187.072V49.1364H185.772ZM187.051 34.8501C187.051 36.2422 187.264 37.4886 187.69 38.5895C188.116 39.6832 188.727 40.5497 189.522 41.1889C190.318 41.821 191.266 42.1371 192.367 42.1371C193.482 42.1371 194.437 41.8175 195.233 41.1783C196.035 40.532 196.646 39.6584 197.065 38.5575C197.491 37.4567 197.704 36.2209 197.704 34.8501C197.704 33.4794 197.495 32.2472 197.076 31.1534C196.657 30.0597 196.049 29.1967 195.254 28.5646C194.459 27.9254 193.496 27.6058 192.367 27.6058C191.252 27.6058 190.297 27.9219 189.501 28.554C188.713 29.179 188.106 30.0384 187.679 31.1321C187.26 32.2187 187.051 33.4581 187.051 34.8501ZM209.58 43.3409C208.231 43.3409 207.03 42.9787 205.979 42.2543C204.928 41.5227 204.101 40.5178 203.497 39.2393C202.893 37.9609 202.592 36.505 202.592 34.8714C202.592 33.2308 202.893 31.7749 203.497 30.5036C204.101 29.2251 204.928 28.2202 205.979 27.4886C207.03 26.7571 208.231 26.3913 209.58 26.3913C210.93 26.3913 212.13 26.7571 213.181 27.4886C214.232 28.2202 215.06 29.2251 215.663 30.5036C216.267 31.782 216.569 33.2379 216.569 34.8714C216.569 36.505 216.267 37.9609 215.663 39.2393C215.06 40.5178 214.232 41.5227 213.181 42.2543C212.13 42.9787 210.93 43.3409 209.58 43.3409ZM209.58 42.1371C210.724 42.1371 211.722 41.8139 212.574 41.1676C213.433 40.5213 214.097 39.6477 214.566 38.5469C215.042 37.446 215.28 36.2209 215.28 34.8714C215.28 33.522 215.042 32.3004 214.566 31.2067C214.09 30.1058 213.426 29.2322 212.574 28.5859C211.722 27.9325 210.724 27.6058 209.58 27.6058C208.437 27.6058 207.439 27.9325 206.587 28.5859C205.734 29.2322 205.07 30.1058 204.594 31.2067C204.119 32.3004 203.881 33.522 203.881 34.8714C203.881 36.2209 204.115 37.446 204.584 38.5469C205.06 39.6477 205.724 40.5213 206.576 41.1676C207.435 41.8139 208.437 42.1371 209.58 42.1371ZM231.444 30.1626L230.24 30.4822C230.048 29.8857 229.775 29.3707 229.419 28.9375C229.064 28.5043 228.617 28.1705 228.077 27.9361C227.544 27.6946 226.905 27.5739 226.16 27.5739C224.959 27.5739 223.976 27.8722 223.209 28.4688C222.449 29.0653 222.069 29.843 222.069 30.8018C222.069 31.5831 222.328 32.2294 222.846 32.7408C223.365 33.245 224.157 33.6286 225.222 33.8913L227.736 34.5199C229.029 34.8395 230.002 35.358 230.655 36.0753C231.309 36.7855 231.635 37.6697 231.635 38.728C231.635 39.63 231.39 40.429 230.9 41.125C230.41 41.821 229.732 42.3643 228.866 42.755C228.006 43.1456 227.005 43.3409 225.861 43.3409C224.334 43.3409 223.081 42.9858 222.101 42.2756C221.12 41.5582 220.492 40.532 220.215 39.1967L221.461 38.8771C221.696 39.9425 222.182 40.7557 222.921 41.3168C223.667 41.8707 224.643 42.1477 225.851 42.1477C227.186 42.1477 228.262 41.8317 229.079 41.1996C229.902 40.5675 230.314 39.7578 230.314 38.7706C230.314 38.0178 230.073 37.3821 229.59 36.8636C229.107 36.3452 228.375 35.9652 227.395 35.7237L224.785 35.0845C223.45 34.7578 222.449 34.2358 221.781 33.5185C221.113 32.794 220.78 31.9027 220.78 30.8445C220.78 29.9638 221.01 29.1896 221.472 28.522C221.934 27.8544 222.569 27.3324 223.379 26.956C224.189 26.5795 225.116 26.3913 226.16 26.3913C227.544 26.3913 228.674 26.718 229.547 27.3714C230.421 28.0249 231.053 28.9553 231.444 30.1626ZM240.47 43.3516C239.525 43.3516 238.659 43.1634 237.87 42.7869C237.089 42.4105 236.46 41.8601 235.985 41.1357C235.516 40.4112 235.282 39.5305 235.282 38.4936C235.282 37.8118 235.402 37.2116 235.644 36.6932C235.885 36.1747 236.258 35.7273 236.762 35.3509C237.267 34.9744 237.913 34.6655 238.701 34.424C239.49 34.1754 240.431 33.9837 241.524 33.8487C242.355 33.7493 243.098 33.6534 243.751 33.5611C244.404 33.4616 244.916 33.3089 245.285 33.103C245.661 32.897 245.85 32.5845 245.85 32.1655V31.4837C245.85 30.2905 245.473 29.3423 244.72 28.6392C243.968 27.9361 242.931 27.5845 241.61 27.5845C240.438 27.5845 239.451 27.8437 238.648 28.3622C237.853 28.8736 237.295 29.5341 236.975 30.3438L235.75 29.8857C236.063 29.1044 236.514 28.4545 237.103 27.9361C237.7 27.4176 238.382 27.0305 239.149 26.7749C239.923 26.5192 240.733 26.3913 241.578 26.3913C242.309 26.3913 243.005 26.4943 243.666 26.7003C244.333 26.9062 244.926 27.2188 245.445 27.6378C245.97 28.0568 246.386 28.593 246.691 29.2464C246.997 29.8928 247.149 30.6669 247.149 31.5689V43H245.85V40.049H245.754C245.47 40.6598 245.079 41.2173 244.582 41.7216C244.092 42.2188 243.499 42.6165 242.803 42.9148C242.114 43.206 241.336 43.3516 240.47 43.3516ZM240.598 42.1477C241.62 42.1477 242.526 41.8991 243.314 41.402C244.11 40.8977 244.731 40.2088 245.179 39.3352C245.626 38.4616 245.85 37.4709 245.85 36.3629V33.9553C245.686 34.0973 245.448 34.2251 245.136 34.3388C244.831 34.4453 244.483 34.5412 244.092 34.6264C243.708 34.7045 243.304 34.7756 242.877 34.8395C242.458 34.8963 242.05 34.9496 241.652 34.9993C240.459 35.1413 239.486 35.3615 238.733 35.6598C237.987 35.951 237.441 36.3345 237.093 36.8104C236.752 37.2862 236.581 37.8615 236.581 38.5362C236.581 39.6513 236.965 40.532 237.732 41.1783C238.499 41.8246 239.454 42.1477 240.598 42.1477ZM253.898 21.1818V43H252.599V21.1818H253.898Z" fill="#CE5A85"/>
</g>
<defs>
<linearGradient id="paint0_linear_462_466" x1="-3.4905" y1="65.0012" x2="309.501" y2="65.7533" gradientUnits="userSpaceOnUse">
<stop stop-color="#DBDBDB"/>
<stop offset="1" stop-color="#D1CECE"/>
</linearGradient>
<linearGradient id="paint1_linear_462_466" x1="301" y1="0" x2="301" y2="67" gradientUnits="userSpaceOnUse">
<stop stop-color="#EEEEEE"/>
<stop offset="1" stop-color="#E1DDDD"/>
</linearGradient>
</defs>
</svg>
