<svg width="789" height="525" viewBox="0 0 789 525" fill="none" xmlns="http://www.w3.org/2000/svg">
<rect x="12.5" y="12.5" width="754" height="490" stroke="white" stroke-width="25"/>
<rect x="9" y="18" width="749" height="64" fill="white"/>
<path d="M286.9 31.92C286.06 31.9667 285.442 32.06 285.045 32.2C284.672 32.34 284.415 32.6083 284.275 33.005C284.135 33.4017 284.065 34.0433 284.065 34.93V52.99C284.065 53.6433 284.112 54.1217 284.205 54.425C284.298 54.7283 284.462 54.9383 284.695 55.055C284.928 55.1483 285.313 55.195 285.85 55.195H287.005C287.822 55.195 288.708 54.7867 289.665 53.97C290.622 53.1533 291.485 52.08 292.255 50.75C293.025 49.3967 293.538 47.9967 293.795 46.55H294.6C294.53 47.39 294.495 48.4633 294.495 49.77C294.495 52.29 294.577 54.3667 294.74 56C293.153 55.93 290.482 55.895 286.725 55.895C281.265 55.895 277.182 55.93 274.475 56V55.3C275.222 55.2533 275.758 55.16 276.085 55.02C276.435 54.88 276.668 54.6117 276.785 54.215C276.902 53.8183 276.96 53.1767 276.96 52.29V34.93C276.96 34.0433 276.89 33.4017 276.75 33.005C276.633 32.6083 276.412 32.34 276.085 32.2C275.758 32.06 275.222 31.9667 274.475 31.92V31.22C275.805 31.29 277.882 31.325 280.705 31.325C283.388 31.325 285.453 31.29 286.9 31.22V31.92ZM315.389 51.17C315.389 52.5933 315.471 54.2033 315.634 56C314.118 55.93 311.563 55.895 307.969 55.895C302.836 55.895 298.986 55.93 296.419 56V55.3C297.166 55.2533 297.703 55.16 298.029 55.02C298.379 54.88 298.613 54.6117 298.729 54.215C298.846 53.8183 298.904 53.1767 298.904 52.29V38.43C298.904 37.5433 298.834 36.9017 298.694 36.505C298.578 36.1083 298.356 35.84 298.029 35.7C297.703 35.56 297.166 35.4667 296.419 35.42V34.72C298.986 34.79 302.836 34.825 307.969 34.825C311.236 34.825 313.558 34.79 314.934 34.72C314.771 36.3767 314.689 37.87 314.689 39.2C314.689 40.11 314.724 40.8333 314.794 41.37H313.989C313.523 39.2933 312.776 37.8 311.749 36.89C310.746 35.98 309.463 35.525 307.899 35.525H307.444C306.791 35.525 306.324 35.6417 306.044 35.875C305.788 36.1083 305.659 36.61 305.659 37.38V44.94H306.464C307.584 44.94 308.471 44.5433 309.124 43.75C309.801 42.9333 310.233 42.0233 310.419 41.02H311.224C311.154 41.8133 311.119 42.7467 311.119 43.82V45.29C311.119 46.4333 311.189 47.8567 311.329 49.56H310.524C310.361 48.44 309.929 47.5067 309.229 46.76C308.529 46.0133 307.608 45.64 306.464 45.64H305.659V53.34C305.659 54.11 305.788 54.6117 306.044 54.845C306.324 55.0783 306.791 55.195 307.444 55.195H308.249C309.883 55.195 311.236 54.6933 312.309 53.69C313.406 52.6633 314.199 50.9833 314.689 48.65H315.494C315.424 49.3033 315.389 50.1433 315.389 51.17ZM339.369 34.72C339.206 36.6567 339.124 38.3833 339.124 39.9C339.124 41.3 339.159 42.3733 339.229 43.12H338.424C337.771 40.3667 336.966 38.4183 336.009 37.275C335.076 36.1083 333.851 35.525 332.334 35.525H332.019V51.94C332.019 52.92 332.113 53.6317 332.299 54.075C332.486 54.5183 332.813 54.8217 333.279 54.985C333.746 55.1483 334.504 55.2533 335.554 55.3V56C334.248 55.93 331.891 55.895 328.484 55.895C325.101 55.895 322.849 55.93 321.729 56V55.3C322.779 55.2533 323.538 55.1483 324.004 54.985C324.471 54.8217 324.798 54.5183 324.984 54.075C325.171 53.6317 325.264 52.92 325.264 51.94V35.525H324.949C323.433 35.525 322.196 36.1083 321.239 37.275C320.306 38.4183 319.513 40.3667 318.859 43.12H318.054C318.124 42.3733 318.159 41.3 318.159 39.9C318.159 38.3833 318.078 36.6567 317.914 34.72C319.991 34.79 323.514 34.825 328.484 34.825C333.594 34.825 337.223 34.79 339.369 34.72ZM344.414 30.73C345.674 30.73 346.596 31.1617 347.179 32.025C347.436 32.375 347.646 32.8417 347.809 33.425C347.972 34.0083 348.054 34.65 348.054 35.35C348.054 36.5633 347.739 37.6833 347.109 38.71C346.479 39.7367 345.557 40.53 344.344 41.09L344.029 40.46C344.636 40.18 345.172 39.7833 345.639 39.27C346.129 38.7333 346.467 38.1733 346.654 37.59C346.771 37.2633 346.829 36.8783 346.829 36.435C346.829 36.085 346.806 35.8283 346.759 35.665C346.152 36.3883 345.301 36.75 344.204 36.75C343.271 36.75 342.524 36.4933 341.964 35.98C341.404 35.4433 341.124 34.6967 341.124 33.74C341.124 32.83 341.427 32.1067 342.034 31.57C342.641 31.01 343.434 30.73 344.414 30.73ZM360.122 34.23C362.082 34.23 363.856 34.6617 365.442 35.525C365.699 35.665 365.921 35.7817 366.107 35.875C366.317 35.9683 366.492 36.015 366.632 36.015C366.842 36.015 367.006 35.8983 367.122 35.665C367.239 35.4083 367.332 35.0117 367.402 34.475H368.207C368.091 35.9917 368.032 38.605 368.032 42.315H367.227C366.901 39.935 366.131 38.1383 364.917 36.925C363.727 35.6883 362.257 35.07 360.507 35.07C359.387 35.07 358.501 35.28 357.847 35.7C357.194 36.12 356.867 36.6683 356.867 37.345C356.867 37.9517 357.089 38.535 357.532 39.095C357.976 39.6317 358.547 40.145 359.247 40.635C359.947 41.125 361.056 41.8483 362.572 42.805C363.972 43.6217 365.116 44.3683 366.002 45.045C366.889 45.6983 367.636 46.4917 368.242 47.425C368.849 48.335 369.152 49.3733 369.152 50.54C369.152 52.4533 368.277 53.9233 366.527 54.95C364.777 55.9767 362.444 56.49 359.527 56.49C358.407 56.49 357.439 56.3617 356.622 56.105C355.806 55.8717 354.837 55.5333 353.717 55.09C353.087 54.8333 352.679 54.705 352.492 54.705C352.282 54.705 352.119 54.8333 352.002 55.09C351.886 55.3233 351.792 55.7083 351.722 56.245H350.917C351.011 54.845 351.057 51.8117 351.057 47.145H351.862C352.049 49.8517 352.784 51.94 354.067 53.41C355.351 54.88 357.089 55.615 359.282 55.615C360.262 55.615 361.102 55.3933 361.802 54.95C362.526 54.5067 362.887 53.83 362.887 52.92C362.887 52.08 362.572 51.345 361.942 50.715C361.312 50.085 360.192 49.2683 358.582 48.265C356.156 46.8183 354.301 45.4767 353.017 44.24C351.734 42.98 351.092 41.58 351.092 40.04C351.092 38.15 351.921 36.715 353.577 35.735C355.234 34.7317 357.416 34.23 360.122 34.23ZM411.051 31.92C410.304 31.9667 409.756 32.06 409.406 32.2C409.079 32.34 408.858 32.6083 408.741 33.005C408.624 33.4017 408.566 34.0433 408.566 34.93V52.29C408.566 53.1767 408.624 53.8183 408.741 54.215C408.881 54.6117 409.114 54.88 409.441 55.02C409.768 55.16 410.304 55.2533 411.051 55.3V56C409.628 55.93 407.563 55.895 404.856 55.895C402.033 55.895 399.956 55.93 398.626 56V55.3C399.466 55.2533 400.073 55.16 400.446 55.02C400.843 54.88 401.111 54.6117 401.251 54.215C401.391 53.8183 401.461 53.1767 401.461 52.29V34.405L393.026 55.965H392.466L382.596 33.495V49.14C382.596 50.8667 382.666 52.115 382.806 52.885C382.946 53.6317 383.249 54.18 383.716 54.53C384.206 54.88 385.011 55.1367 386.131 55.3V56C385.174 55.93 383.868 55.895 382.211 55.895C380.974 55.895 380.006 55.93 379.306 56V55.3C380.029 55.1367 380.566 54.8917 380.916 54.565C381.266 54.215 381.499 53.69 381.616 52.99C381.733 52.29 381.791 51.24 381.791 49.84V34.93C381.791 34.0433 381.721 33.4017 381.581 33.005C381.464 32.6083 381.243 32.34 380.916 32.2C380.589 32.06 380.053 31.9667 379.306 31.92V31.22C380.006 31.29 380.974 31.325 382.211 31.325C385.011 31.325 387.426 31.29 389.456 31.22L396.071 46.095L401.811 31.325H404.856C407.563 31.325 409.628 31.29 411.051 31.22V31.92ZM432.01 51.17C432.01 52.5933 432.092 54.2033 432.255 56C430.739 55.93 428.184 55.895 424.59 55.895C419.457 55.895 415.607 55.93 413.04 56V55.3C413.787 55.2533 414.324 55.16 414.65 55.02C415 54.88 415.234 54.6117 415.35 54.215C415.467 53.8183 415.525 53.1767 415.525 52.29V38.43C415.525 37.5433 415.455 36.9017 415.315 36.505C415.199 36.1083 414.977 35.84 414.65 35.7C414.324 35.56 413.787 35.4667 413.04 35.42V34.72C415.607 34.79 419.457 34.825 424.59 34.825C427.857 34.825 430.179 34.79 431.555 34.72C431.392 36.3767 431.31 37.87 431.31 39.2C431.31 40.11 431.345 40.8333 431.415 41.37H430.61C430.144 39.2933 429.397 37.8 428.37 36.89C427.367 35.98 426.084 35.525 424.52 35.525H424.065C423.412 35.525 422.945 35.6417 422.665 35.875C422.409 36.1083 422.28 36.61 422.28 37.38V44.94H423.085C424.205 44.94 425.092 44.5433 425.745 43.75C426.422 42.9333 426.854 42.0233 427.04 41.02H427.845C427.775 41.8133 427.74 42.7467 427.74 43.82V45.29C427.74 46.4333 427.81 47.8567 427.95 49.56H427.145C426.982 48.44 426.55 47.5067 425.85 46.76C425.15 46.0133 424.229 45.64 423.085 45.64H422.28V53.34C422.28 54.11 422.409 54.6117 422.665 54.845C422.945 55.0783 423.412 55.195 424.065 55.195H424.87C426.504 55.195 427.857 54.6933 428.93 53.69C430.027 52.6633 430.82 50.9833 431.31 48.65H432.115C432.045 49.3033 432.01 50.1433 432.01 51.17ZM453.68 51.17C453.68 52.5933 453.762 54.2033 453.925 56C452.409 55.93 449.854 55.895 446.26 55.895C441.127 55.895 437.277 55.93 434.71 56V55.3C435.457 55.2533 435.994 55.16 436.32 55.02C436.67 54.88 436.904 54.6117 437.02 54.215C437.137 53.8183 437.195 53.1767 437.195 52.29V38.43C437.195 37.5433 437.125 36.9017 436.985 36.505C436.869 36.1083 436.647 35.84 436.32 35.7C435.994 35.56 435.457 35.4667 434.71 35.42V34.72C437.277 34.79 441.127 34.825 446.26 34.825C449.527 34.825 451.849 34.79 453.225 34.72C453.062 36.3767 452.98 37.87 452.98 39.2C452.98 40.11 453.015 40.8333 453.085 41.37H452.28C451.814 39.2933 451.067 37.8 450.04 36.89C449.037 35.98 447.754 35.525 446.19 35.525H445.735C445.082 35.525 444.615 35.6417 444.335 35.875C444.079 36.1083 443.95 36.61 443.95 37.38V44.94H444.755C445.875 44.94 446.762 44.5433 447.415 43.75C448.092 42.9333 448.524 42.0233 448.71 41.02H449.515C449.445 41.8133 449.41 42.7467 449.41 43.82V45.29C449.41 46.4333 449.48 47.8567 449.62 49.56H448.815C448.652 48.44 448.22 47.5067 447.52 46.76C446.82 46.0133 445.899 45.64 444.755 45.64H443.95V53.34C443.95 54.11 444.079 54.6117 444.335 54.845C444.615 55.0783 445.082 55.195 445.735 55.195H446.54C448.174 55.195 449.527 54.6933 450.6 53.69C451.697 52.6633 452.49 50.9833 452.98 48.65H453.785C453.715 49.3033 453.68 50.1433 453.68 51.17ZM477.66 34.72C477.497 36.6567 477.415 38.3833 477.415 39.9C477.415 41.3 477.45 42.3733 477.52 43.12H476.715C476.062 40.3667 475.257 38.4183 474.3 37.275C473.367 36.1083 472.142 35.525 470.625 35.525H470.31V51.94C470.31 52.92 470.404 53.6317 470.59 54.075C470.777 54.5183 471.104 54.8217 471.57 54.985C472.037 55.1483 472.795 55.2533 473.845 55.3V56C472.539 55.93 470.182 55.895 466.775 55.895C463.392 55.895 461.14 55.93 460.02 56V55.3C461.07 55.2533 461.829 55.1483 462.295 54.985C462.762 54.8217 463.089 54.5183 463.275 54.075C463.462 53.6317 463.555 52.92 463.555 51.94V35.525H463.24C461.724 35.525 460.487 36.1083 459.53 37.275C458.597 38.4183 457.804 40.3667 457.15 43.12H456.345C456.415 42.3733 456.45 41.3 456.45 39.9C456.45 38.3833 456.369 36.6567 456.205 34.72C458.282 34.79 461.805 34.825 466.775 34.825C471.885 34.825 475.514 34.79 477.66 34.72Z" fill="#CE5A85"/>
<path d="M711.5 53H738.5V50H711.5V53ZM711.5 45.5H738.5V42.5H711.5V45.5ZM711.5 35V38H738.5V35H711.5Z" fill="#CE5A85"/>
<path d="M0 515H779L789 525H10L0 515Z" fill="url(#paint0_linear_240_1053)"/>
<path d="M25 82H754V92H34.9999L25 82Z" fill="url(#paint1_linear_240_1053)"/>
<path d="M779 0L789 10V525L779 515V0Z" fill="url(#paint2_linear_240_1053)"/>
<path d="M25 82L35 92V490H25V82Z" fill="url(#paint3_linear_240_1053)"/>
<defs>
<linearGradient id="paint0_linear_240_1053" x1="-9" y1="514.999" x2="798" y2="519.999" gradientUnits="userSpaceOnUse">
<stop stop-color="#DBDBDB"/>
<stop offset="1" stop-color="#D1CECE"/>
</linearGradient>
<linearGradient id="paint1_linear_240_1053" x1="16.6844" y1="81.9974" x2="762.32" y2="86.2658" gradientUnits="userSpaceOnUse">
<stop stop-color="#DBDBDB"/>
<stop offset="1" stop-color="#D1CECE"/>
</linearGradient>
<linearGradient id="paint2_linear_240_1053" x1="784" y1="0" x2="784" y2="525" gradientUnits="userSpaceOnUse">
<stop stop-color="#EEEEEE"/>
<stop offset="1" stop-color="#E1DDDD"/>
</linearGradient>
<linearGradient id="paint3_linear_240_1053" x1="30" y1="83" x2="30" y2="608" gradientUnits="userSpaceOnUse">
<stop stop-color="#EEEEEE"/>
<stop offset="1" stop-color="#E1DDDD"/>
</linearGradient>
</defs>
</svg>
