<svg width="31" height="29" viewBox="0 0 31 29" fill="none" xmlns="http://www.w3.org/2000/svg">
<path d="M9.75229 28.189C21.4475 28.189 27.8461 17.3427 27.8461 7.93973C27.8461 7.63482 27.8401 7.32312 27.8279 7.0182C29.0727 6.01081 30.1468 4.76302 31 3.33345C29.8408 3.91065 28.61 4.28762 27.3496 4.45148C28.6767 3.56128 29.6703 2.16282 30.1463 0.515332C28.8979 1.34332 27.5326 1.9274 26.109 2.24252C25.1498 1.10192 23.8816 0.34671 22.5004 0.0936467C21.1192 -0.159416 19.702 0.103765 18.4679 0.842499C17.2338 1.58123 16.2515 2.75438 15.6729 4.18055C15.0943 5.60672 14.9516 7.20649 15.2669 8.73252C12.7391 8.59056 10.2661 7.85567 8.00831 6.57549C5.75053 5.29532 3.75835 3.49844 2.16092 1.30134C1.34902 2.86791 1.10057 4.72166 1.46608 6.48586C1.83159 8.25006 2.78362 9.79231 4.12869 10.7992C3.11889 10.7633 2.13122 10.459 1.24727 9.91153V9.99962C1.24636 11.6436 1.75421 13.2372 2.68448 14.5096C3.61476 15.7819 4.91004 16.6544 6.35016 16.9788C5.41474 17.2653 4.43298 17.307 3.48084 17.1008C3.88721 18.5147 4.67787 19.7512 5.74245 20.638C6.80704 21.5247 8.09245 22.0174 9.41928 22.0472C7.16671 24.0274 4.38414 25.1015 1.51973 25.0964C1.01175 25.0956 0.504265 25.0607 0 24.9921C2.90994 27.0813 6.29498 28.191 9.75229 28.189Z" fill="black"/>
</svg>
