<svg preserveAspectRatio="none"  viewBox="0 0 910 1077" fill="none" xmlns="http://www.w3.org/2000/svg">
<g filter="url(#filter0_d_424_398)">
<path d="M61.7057 0H905.406V1069H61.7057C61.7057 1069 122.44 912.593 119.5 795.5C114.759 606.694 4.40552 441.867 4.40552 253C4.40552 57 61.7057 0 61.7057 0Z" fill="white"/>
<path d="M61.9034 0.514334C61.9081 0.509442 61.9126 0.504664 61.9171 0.5H904.906V1068.5H62.4335C62.5418 1068.22 62.6828 1067.85 62.8547 1067.39C63.2994 1066.22 63.9509 1064.48 64.779 1062.22C66.4351 1057.71 68.7973 1051.14 71.6226 1042.89C77.273 1026.39 84.7762 1003.17 92.1875 976.293C107.007 922.542 121.472 854.109 120 795.487C117.676 702.955 90.0081 616.186 62.4006 529.608C61.8174 527.779 61.2342 525.95 60.6512 524.121C32.4673 435.696 4.90552 347.344 4.90552 253C4.90552 155.048 19.2235 91.8586 33.5246 53.1734C40.6752 33.8308 47.8219 20.613 53.1739 12.238C55.8499 8.05038 58.0774 5.07314 59.6327 3.14605C60.4103 2.18249 61.0199 1.48144 61.4335 1.02286C61.6403 0.793569 61.7981 0.624895 61.9034 0.514334Z" stroke="white"/>
</g>
<defs>
<filter id="filter0_d_424_398" x="0.405518" y="0" width="909" height="1077" filterUnits="userSpaceOnUse" color-interpolation-filters="sRGB">
<feFlood flood-opacity="0" result="BackgroundImageFix"/>
<feColorMatrix in="SourceAlpha" type="matrix" values="0 0 0 0 0 0 0 0 0 0 0 0 0 0 0 0 0 0 127 0" result="hardAlpha"/>
<feOffset dy="4"/>
<feGaussianBlur stdDeviation="2"/>
<feComposite in2="hardAlpha" operator="out"/>
<feColorMatrix type="matrix" values="0 0 0 0 0 0 0 0 0 0 0 0 0 0 0 0 0 0 0.25 0"/>
<feBlend mode="normal" in2="BackgroundImageFix" result="effect1_dropShadow_424_398"/>
<feBlend mode="normal" in="SourceGraphic" in2="effect1_dropShadow_424_398" result="shape"/>
</filter>
</defs>
</svg>
